<?xml version="1.0" encoding="utf-8"?>
<!-- Generator: Adobe Illustrator 26.2.1, SVG Export Plug-In . SVG Version: 6.00 Build 0)  -->
<svg version="1.1" id="Layer_1" xmlns="http://www.w3.org/2000/svg" xmlns:xlink="http://www.w3.org/1999/xlink" x="0px" y="0px"
	 viewBox="0 0 841.89 595.28" style="enable-background:new 0 0 841.89 595.28;" xml:space="preserve">
<style type="text/css">
	.st0{clip-path:url(#SVGID_00000152944669836209980390000017974775878977812151_);}
	.st1{fill:#666161;}
</style>
<g id="Group_155" transform="translate(-647.146 -342.5)">
	<g id="Group_86" transform="translate(647.146 342.5)">
		<g id="Group_85">
			<g>
				<defs>
					<rect id="SVGID_1_" x="288.85" y="146.95" width="264.2" height="342.27"/>
				</defs>
				<clipPath id="SVGID_00000034054741988134143590000001308334204124362668_">
					<use xlink:href="#SVGID_1_"  style="overflow:visible;"/>
				</clipPath>
				<g id="Group_84" style="clip-path:url(#SVGID_00000034054741988134143590000001308334204124362668_);">
					<g id="Path_40">
						<path class="st1" d="M546.1,493.84H295.78c-6.39,0-11.56-5.18-11.56-11.56V233.95c0-3.07,1.22-6.01,3.39-8.18l80.07-80.07
							c2.17-2.17,5.11-3.39,8.18-3.39H546.1c6.39,0,11.56,5.18,11.56,11.56v328.39C557.67,488.66,552.49,493.84,546.1,493.84z
							 M307.34,470.71h227.2V165.44h-153.9l-73.3,73.3V470.71z"/>
					</g>
					<g id="Path_41">
						<path class="st1" d="M375.85,245.92h-80.07c-6.39,0-11.56-5.18-11.56-11.56s5.18-11.56,11.56-11.56h68.51v-68.92
							c0-6.39,5.18-11.56,11.56-11.56s11.56,5.18,11.56,11.56v80.48C387.41,240.75,382.23,245.92,375.85,245.92z"/>
					</g>
				</g>
			</g>
		</g>
		<g id="Line_41">
			<path class="st1" d="M496.64,297.16h-151.4c-6.39,0-11.56-5.18-11.56-11.56s5.18-11.56,11.56-11.56h151.4
				c6.39,0,11.56,5.18,11.56,11.56S503.03,297.16,496.64,297.16z"/>
		</g>
		<g id="Line_42">
			<path class="st1" d="M496.64,349.61h-151.4c-6.39,0-11.56-5.18-11.56-11.56s5.18-11.56,11.56-11.56h151.4
				c6.39,0,11.56,5.18,11.56,11.56S503.03,349.61,496.64,349.61z"/>
		</g>
		<g id="Line_43">
			<path class="st1" d="M496.64,402.06h-97.75c-6.39,0-11.56-5.18-11.56-11.56s5.18-11.56,11.56-11.56h97.75
				c6.39,0,11.56,5.18,11.56,11.56S503.03,402.06,496.64,402.06z"/>
		</g>
	</g>
</g>
</svg>
