<?xml version="1.0" encoding="utf-8"?>
<!-- Generator: Adobe Illustrator 26.2.1, SVG Export Plug-In . SVG Version: 6.00 Build 0)  -->
<svg version="1.1" id="Layer_1" xmlns="http://www.w3.org/2000/svg" xmlns:xlink="http://www.w3.org/1999/xlink" x="0px" y="0px"
	 viewBox="0 0 841.89 595.28" style="enable-background:new 0 0 841.89 595.28;" xml:space="preserve">
<style type="text/css">
	.st0{clip-path:url(#SVGID_00000174579724444621075130000015547210689154543489_);}
	.st1{fill:#666161;}
</style>
<g>
	<defs>
		<rect id="SVGID_1_" x="229.21" y="160.66" width="262.12" height="273.95"/>
	</defs>
	<clipPath id="SVGID_00000036226373217342566140000014374971395000847022_">
		<use xlink:href="#SVGID_1_"  style="overflow:visible;"/>
	</clipPath>
	<g id="Group_89" style="clip-path:url(#SVGID_00000036226373217342566140000014374971395000847022_);">
		<g id="Path_46">
			<path class="st1" d="M322.69,412.46c-5.96,0-10.79-4.83-10.79-10.79V223.52c0-4.6,2.92-8.7,7.27-10.2l161.45-55.67
				c3.3-1.14,6.94-0.61,9.78,1.41c2.84,2.02,4.52,5.3,4.52,8.78v189.28c0,5.96-4.83,10.79-10.79,10.79s-10.79-4.83-10.79-10.79
				V182.98l-139.88,48.23v170.46C333.48,407.63,328.65,412.46,322.69,412.46z"/>
		</g>
		<g id="Ellipse_19">
			<path class="st1" d="M279.55,438.21c-30.24,0-53.93-16.05-53.93-36.54c0-20.49,23.69-36.54,53.93-36.54
				c30.24,0,53.93,16.05,53.93,36.54C333.48,422.16,309.79,438.21,279.55,438.21z M279.55,386.71c-19.75,0-32.36,8.86-32.36,14.96
				s12.61,14.96,32.36,14.96c19.75,0,32.36-8.86,32.36-14.96S299.3,386.71,279.55,386.71z"/>
		</g>
		<g id="Ellipse_20">
			<path class="st1" d="M441,392.28c-30.24,0-53.93-16.05-53.93-36.54c0-20.49,23.69-36.54,53.93-36.54s53.93,16.05,53.93,36.54
				C494.93,376.23,471.24,392.28,441,392.28z M441,340.78c-19.75,0-32.36,8.86-32.36,14.96s12.61,14.96,32.36,14.96
				c19.75,0,32.36-8.86,32.36-14.96S460.75,340.78,441,340.78z"/>
		</g>
	</g>
</g>
</svg>
