<?xml version="1.0" encoding="utf-8"?>
<!-- Generator: Adobe Illustrator 26.2.1, SVG Export Plug-In . SVG Version: 6.00 Build 0)  -->
<svg version="1.1" id="Layer_1" xmlns="http://www.w3.org/2000/svg" xmlns:xlink="http://www.w3.org/1999/xlink" x="0px" y="0px"
	 viewBox="0 0 1000 1000" style="enable-background:new 0 0 1000 1000;" xml:space="preserve">
<style type="text/css">
	.st0{opacity:0.53;enable-background:new    ;}
	.st1{fill:#F25E7B;}
	.st2{fill:#393939;}
</style>
<g>
	<g id="Rectangle_77" class="st0">
		<path class="st1" d="M142.14,310.26h547.39c49.75,0,90.08,40.33,90.08,90.08v311.81c0,49.75-40.33,90.08-90.08,90.08H142.14
			c-49.75,0-90.08-40.33-90.08-90.08V400.34C52.06,350.59,92.39,310.26,142.14,310.26z"/>
	</g>
	<g>
		<path class="st2" d="M268.95,408.06c-13.31-3.49-24.11-8.15-32.43-13.97l16.21-36.42c7.81,5.16,16.88,9.32,27.19,12.47
			c10.31,3.16,20.45,4.74,30.43,4.74c18.96,0,28.44-4.74,28.44-14.22c0-4.99-2.7-8.69-8.11-11.1c-5.41-2.41-14.09-4.95-26.07-7.61
			c-13.14-2.83-24.11-5.86-32.93-9.11c-8.82-3.24-16.38-8.44-22.7-15.59c-6.32-7.15-9.48-16.79-9.48-28.94
			c0-10.64,2.91-20.24,8.73-28.81c5.82-8.56,14.51-15.34,26.07-20.33c11.56-4.99,25.73-7.48,42.53-7.48
			c11.47,0,22.78,1.29,33.92,3.87c11.14,2.58,20.95,6.36,29.43,11.35l-15.22,36.67c-16.63-8.98-32.76-13.47-48.39-13.47
			c-9.81,0-16.96,1.46-21.45,4.37c-4.49,2.91-6.73,6.7-6.73,11.35c0,4.66,2.66,8.15,7.98,10.48c5.32,2.33,13.88,4.74,25.69,7.23
			c13.3,2.83,24.32,5.86,33.05,9.1c8.73,3.24,16.3,8.4,22.7,15.47c6.4,7.07,9.6,16.67,9.6,28.81c0,10.48-2.91,19.96-8.73,28.44
			c-5.82,8.48-14.55,15.26-26.19,20.33c-11.64,5.07-25.78,7.61-42.41,7.61C295.97,413.3,282.25,411.55,268.95,408.06z"/>
		<path class="st2" d="M444.81,274.36h-53.63v-39.16h156.4v39.16H494.2v135.45h-49.39V274.36z"/>
		<path class="st2" d="M583.38,392.09c-14.39-14.13-21.58-34.17-21.58-60.12v-96.78h49.39v95.29c0,27.94,11.06,41.91,33.18,41.91
			c21.95,0,32.93-13.97,32.93-41.91v-95.29h48.64v96.78c0,25.94-7.2,45.98-21.58,60.12c-14.39,14.14-34.55,21.2-60.49,21.2
			S597.76,406.23,583.38,392.09z"/>
		<path class="st2" d="M759.36,235.19h82.57c19.12,0,36.08,3.58,50.89,10.73c14.8,7.15,26.27,17.3,34.42,30.43
			c8.15,13.14,12.22,28.52,12.22,46.15c0,17.63-4.08,33.01-12.22,46.15c-8.15,13.14-19.62,23.28-34.42,30.43
			c-14.8,7.15-31.76,10.73-50.89,10.73h-82.57V235.19z M839.93,370.39c14.97,0,26.98-4.24,36.04-12.72
			c9.06-8.48,13.59-20.21,13.59-35.17s-4.53-26.69-13.59-35.17c-9.07-8.48-21.08-12.72-36.04-12.72h-31.18v95.79H839.93z"/>
		<path class="st2" d="M406.4,634.43c5.65,7.4,8.48,16.34,8.48,26.82c0,15.3-6.15,27.11-18.46,35.42
			c-12.31,8.32-30.1,12.47-53.38,12.47h-94.29V534.53h89.3c22.28,0,39.24,4.12,50.89,12.35c11.64,8.23,17.46,19.33,17.46,33.3
			c0,8.32-2.04,15.76-6.11,22.33c-4.08,6.57-9.85,11.77-17.34,15.59C392.93,621.58,400.74,627.03,406.4,634.43z M297.64,570.2v33.68
			h33.92c16.63,0,24.94-5.65,24.94-16.96c0-11.14-8.32-16.71-24.94-16.71H297.64z M364.99,655.76c0-11.81-8.65-17.71-25.94-17.71
			h-41.41v35.42h41.41C356.34,673.47,364.99,667.57,364.99,655.76z"/>
		<path class="st2" d="M460.65,691.43c-14.39-14.13-21.58-34.17-21.58-60.12v-96.78h49.39v95.29c0,27.94,11.06,41.91,33.18,41.91
			c21.95,0,32.93-13.97,32.93-41.91v-95.29h48.64v96.78c0,25.94-7.2,45.98-21.58,60.12c-14.39,14.14-34.55,21.2-60.49,21.2
			C495.2,712.63,475.03,705.56,460.65,691.43z"/>
		<path class="st2" d="M636.63,534.53h82.57c19.12,0,36.08,3.58,50.89,10.73c14.8,7.15,26.27,17.3,34.42,30.43
			c8.15,13.14,12.22,28.52,12.22,46.15c0,17.63-4.08,33.01-12.22,46.15c-8.15,13.14-19.62,23.28-34.42,30.43
			c-14.8,7.15-31.76,10.73-50.89,10.73h-82.57V534.53z M717.2,669.73c14.97,0,26.98-4.24,36.04-12.72
			c9.06-8.48,13.59-20.21,13.59-35.17s-4.53-26.69-13.59-35.17c-9.07-8.48-21.08-12.72-36.04-12.72h-31.18v95.79H717.2z"/>
		<path class="st2" d="M835.19,703.4c-5.49-5.32-8.23-12.05-8.23-20.21c0-8.31,2.7-15.05,8.11-20.21c5.4-5.15,12.18-7.73,20.33-7.73
			c8.31,0,15.13,2.58,20.45,7.73c5.32,5.16,7.98,11.89,7.98,20.21c0,8.15-2.71,14.88-8.11,20.21c-5.41,5.32-12.18,7.98-20.33,7.98
			C847.41,711.38,840.68,708.73,835.19,703.4z"/>
	</g>
</g>
</svg>
