<?xml version="1.0" encoding="utf-8"?>
<!-- Generator: Adobe Illustrator 26.2.1, SVG Export Plug-In . SVG Version: 6.00 Build 0)  -->
<svg version="1.1" id="Layer_1" xmlns="http://www.w3.org/2000/svg" xmlns:xlink="http://www.w3.org/1999/xlink" x="0px" y="0px"
	 viewBox="0 0 841.89 595.28" style="enable-background:new 0 0 841.89 595.28;" xml:space="preserve">
<style type="text/css">
	.st0{opacity:0.76;}
	.st1{fill:none;}
	.st2{fill:#393939;}
</style>
<g id="Group_35" transform="translate(0 1.5)" class="st0">
	<g id="Ellipse_7" transform="translate(0 2.651)">
		<g>
			<ellipse class="st1" cx="401.16" cy="304.3" rx="172.99" ry="172.99"/>
		</g>
		<g>
			<path class="st2" d="M401.16,477.29c-95.39,0-172.99-77.6-172.99-172.99c0-95.39,77.6-172.99,172.99-172.99
				c95.39,0,172.99,77.6,172.99,172.99C574.15,399.69,496.55,477.29,401.16,477.29z M401.16,155.78
				c-81.89,0-148.52,66.62-148.52,148.52c0,81.89,66.62,148.52,148.52,148.52c81.89,0,148.52-66.62,148.52-148.52
				C549.68,222.41,483.05,155.78,401.16,155.78z"/>
		</g>
	</g>
	<g id="Ellipse_8">
		<ellipse class="st2" cx="405.48" cy="306.95" rx="25.95" ry="25.95"/>
	</g>
	<g id="Line_15">
		<path class="st2" d="M405.48,369.17c-5.41,0-9.79-4.38-9.79-9.79V195.04c0-5.41,4.38-9.79,9.79-9.79s9.79,4.38,9.79,9.79v164.34
			C415.27,364.79,410.89,369.17,405.48,369.17z"/>
	</g>
	<g id="Line_16">
		<rect x="393.25" y="112.34" class="st2" width="24.47" height="34.6"/>
	</g>
	<g id="Line_17">
		<path class="st2" d="M422.79,124.57h-34.6c-6.76,0-12.24-5.48-12.24-12.24s5.48-12.24,12.24-12.24h34.6
			c6.76,0,12.24,5.48,12.24,12.24S429.54,124.57,422.79,124.57z"/>
	</g>
	<g id="Rectangle_26">
		<path class="st2" d="M528.17,139.42l20.02,18.02c3.35,3.01,3.62,8.17,0.6,11.52l-18.02,20.02c-3.01,3.35-8.17,3.62-11.52,0.6
			l-20.02-18.02c-3.35-3.01-3.62-8.17-0.6-11.52l18.02-20.02C519.67,136.68,524.83,136.41,528.17,139.42z"/>
	</g>
</g>
</svg>
