<?xml version="1.0" encoding="utf-8"?>
<!-- Generator: Adobe Illustrator 26.3.1, SVG Export Plug-In . SVG Version: 6.00 Build 0)  -->
<svg version="1.1" id="Layer_1" xmlns="http://www.w3.org/2000/svg" xmlns:xlink="http://www.w3.org/1999/xlink" x="0px" y="0px"
	 viewBox="0 0 1000 1000" style="enable-background:new 0 0 1000 1000;" xml:space="preserve">
<style type="text/css">
	.st0{fill:#666161;stroke:#666161;stroke-width:6;stroke-miterlimit:10;}
</style>
<g>
	<path class="st0" d="M461.08,545.44H322.74c-12.13,0-22-9.87-22-22V337.65c0-12.13,9.87-22,22-22h138.33c12.13,0,22,9.87,22,22
		v185.79C483.08,535.57,473.21,545.44,461.08,545.44z M322.74,333.6c-2.23,0-4.05,1.81-4.05,4.05v185.79c0,2.23,1.81,4.05,4.05,4.05
		h138.33c2.23,0,4.05-1.82,4.05-4.05V337.65c0-2.23-1.81-4.05-4.05-4.05H322.74z"/>
	<path class="st0" d="M677.26,684.35H538.92c-12.13,0-22-9.87-22-22v-324.7c0-12.13,9.87-22,22-22h138.33c12.13,0,22,9.87,22,22
		v324.7C699.26,674.48,689.39,684.35,677.26,684.35z M538.92,333.6c-2.23,0-4.05,1.81-4.05,4.05v324.7c0,2.23,1.82,4.05,4.05,4.05
		h138.33c2.23,0,4.05-1.82,4.05-4.05v-324.7c0-2.23-1.81-4.05-4.05-4.05H538.92z"/>
</g>
</svg>
