<?xml version="1.0" encoding="utf-8"?>
<!-- Generator: Adobe Illustrator 26.3.1, SVG Export Plug-In . SVG Version: 6.00 Build 0)  -->
<svg version="1.1" id="Layer_1" xmlns="http://www.w3.org/2000/svg" xmlns:xlink="http://www.w3.org/1999/xlink" x="0px" y="0px"
	 viewBox="0 0 1000 1000" style="enable-background:new 0 0 1000 1000;" xml:space="preserve">
<style type="text/css">
	.st0{opacity:0.74;enable-background:new    ;}
	.st1{fill:#E6E6E9;}
	.st2{clip-path:url(#SVGID_00000127727326570306065780000001417813268232892606_);}
	.st3{fill:#EFEFEF;}
	.st4{fill:#A7BBC1;}
	.st5{fill:#889A9E;}
	.st6{fill:#D6D6D6;}
	.st7{fill:#8E8E8E;}
</style>
<g>
	<g id="Rectangle_37" class="st0">
		<path class="st1" d="M211.42,200.53h577.17c40.6,0,73.51,32.91,73.51,73.51v451.93c0,40.6-32.91,73.51-73.51,73.51H211.42
			c-40.6,0-73.51-32.91-73.51-73.51V274.03C137.91,233.44,170.82,200.53,211.42,200.53z"/>
	</g>
	<g id="Group_50" transform="translate(48.235 15)">
		<g>
			<defs>
				<rect id="SVGID_1_" x="220.99" y="226.36" width="461.54" height="519.47"/>
			</defs>
			<clipPath id="SVGID_00000065759931840534776210000001259284176498647477_">
				<use xlink:href="#SVGID_1_"  style="overflow:visible;"/>
			</clipPath>
			<g id="Group_49" style="clip-path:url(#SVGID_00000065759931840534776210000001259284176498647477_);">
				<g id="Path_35">
					<path class="st3" d="M664.78,515.06c0,117.65-95.37,213.02-213.01,213.02s-213.02-95.37-213.02-213.01
						c0-117.65,95.37-213.02,213.01-213.02c0,0,0,0,0.01,0C569.41,302.05,664.78,397.42,664.78,515.06
						C664.78,515.07,664.78,515.07,664.78,515.06"/>
				</g>
				<g id="Line_18">
					<rect x="430.6" y="259.22" class="st4" width="42.33" height="42.82"/>
				</g>
				<g id="Line_19">
					<path class="st4" d="M471.08,266.58h-38.64c-11.1,0-20.11-9-20.11-20.11s9-20.11,20.11-20.11h38.64c11.1,0,20.11,9,20.11,20.11
						S482.19,266.58,471.08,266.58z"/>
				</g>
				<g id="Line_20">
					<path class="st4" d="M578.73,356.54c-5.39,0-10.81-1.8-15.28-5.5c-10.22-8.45-11.66-23.58-3.21-33.81l15.4-18.64
						c8.45-10.22,23.58-11.66,33.81-3.21c10.22,8.45,11.66,23.58,3.21,33.81l-15.4,18.64C592.51,353.57,585.64,356.54,578.73,356.54
						z"/>
				</g>
				<g id="Line_21">
					<path class="st5" d="M451.76,573.59c-4.9,0-8.88-3.97-8.88-8.88V372.29c0-4.9,3.97-8.88,8.88-8.88s8.88,3.97,8.88,8.88v192.42
						C460.64,569.61,456.67,573.59,451.76,573.59z"/>
				</g>
				<g id="Path_36">
					<path class="st5" d="M473.4,515.06c0,11.95-9.68,21.63-21.62,21.64c-11.95,0-21.63-9.68-21.64-21.62
						c0-11.95,9.68-21.63,21.62-21.64c0,0,0.01,0,0.01,0C463.71,493.44,473.4,503.12,473.4,515.06"/>
				</g>
				<g id="Path_37">
					<path class="st6" d="M300.37,540.14c-17.7-102.15,41.1-199.07,133.67-227.17c-7.67,0.37-15.3,1.21-22.87,2.52
						c-105.28,18.24-175.14,122.33-156.06,232.5S375.02,732.66,480.3,714.42c7.56-1.31,15.03-3.09,22.37-5.32
						c-96.65,4.69-184.62-66.8-202.32-168.95"/>
				</g>
				<g id="Ellipse_13">
					<path class="st4" d="M451.76,745.83c-61.64,0-119.59-24-163.18-67.59C245,634.66,220.99,576.7,220.99,515.06
						c0-61.64,24-119.59,67.59-163.18c43.59-43.59,101.54-67.59,163.18-67.59s119.59,24,163.18,67.59
						c43.59,43.59,67.59,101.54,67.59,163.18c0,61.64-24,119.59-67.59,163.18C571.36,721.83,513.41,745.83,451.76,745.83z
						 M451.76,319.8c-107.67,0-195.27,87.6-195.27,195.26c0,107.67,87.6,195.27,195.27,195.27c107.67,0,195.27-87.6,195.27-195.27
						C647.03,407.39,559.43,319.8,451.76,319.8z"/>
				</g>
				<g id="Line_22">
					<path class="st7" d="M451.76,345.06c-1.51,0-2.73-1.22-2.73-2.73v-14.45c0-1.51,1.22-2.73,2.73-2.73
						c1.51,0,2.73,1.22,2.73,2.73v14.45C454.5,343.84,453.27,345.06,451.76,345.06z"/>
				</g>
				<g id="Line_23">
					<path class="st7" d="M451.76,704.97c-1.51,0-2.73-1.22-2.73-2.73v-14.45c0-1.51,1.22-2.73,2.73-2.73
						c1.51,0,2.73,1.22,2.73,2.73v14.45C454.5,703.75,453.27,704.97,451.76,704.97z"/>
				</g>
				<g id="Line_24">
					<path class="st7" d="M638.94,517.79H624.5c-1.51,0-2.73-1.22-2.73-2.73s1.22-2.73,2.73-2.73h14.45c1.51,0,2.73,1.22,2.73,2.73
						S640.45,517.79,638.94,517.79z"/>
				</g>
				<g id="Line_25">
					<path class="st7" d="M279.03,517.79h-14.45c-1.51,0-2.73-1.22-2.73-2.73s1.22-2.73,2.73-2.73h14.45c1.51,0,2.73,1.22,2.73,2.73
						S280.54,517.79,279.03,517.79z"/>
				</g>
				<g id="Line_26">
					<path class="st7" d="M319.41,650.15c-0.7,0-1.4-0.27-1.93-0.8c-1.07-1.07-1.07-2.79,0-3.86l10.22-10.22
						c1.07-1.07,2.79-1.07,3.86,0c1.07,1.07,1.07,2.79,0,3.86l-10.22,10.22C320.81,649.88,320.11,650.15,319.41,650.15z"/>
				</g>
				<g id="Line_27">
					<path class="st7" d="M573.9,395.65c-0.7,0-1.4-0.27-1.93-0.8c-1.07-1.07-1.07-2.79,0-3.86l10.22-10.22
						c1.07-1.07,2.79-1.07,3.86,0s1.07,2.79,0,3.86l-10.22,10.22C575.3,395.39,574.6,395.65,573.9,395.65z"/>
				</g>
				<g id="Line_28">
					<path class="st7" d="M584.12,650.15c-0.7,0-1.4-0.27-1.93-0.8l-10.22-10.22c-1.07-1.07-1.07-2.79,0-3.86s2.79-1.07,3.86,0
						l10.22,10.22c1.07,1.07,1.07,2.79,0,3.86C585.52,649.88,584.82,650.15,584.12,650.15z"/>
				</g>
				<g id="Line_29">
					<path class="st7" d="M329.63,395.65c-0.7,0-1.4-0.27-1.93-0.8l-10.22-10.22c-1.07-1.07-1.07-2.8,0-3.86
						c1.07-1.07,2.79-1.07,3.86,0l10.22,10.22c1.07,1.07,1.07,2.8,0,3.86C331.02,395.39,330.32,395.65,329.63,395.65z"/>
				</g>
			</g>
		</g>
	</g>
</g>
</svg>
