<?xml version="1.0" encoding="utf-8"?>
<!-- Generator: Adobe Illustrator 26.3.1, SVG Export Plug-In . SVG Version: 6.00 Build 0)  -->
<svg version="1.1" id="Layer_1" xmlns="http://www.w3.org/2000/svg" xmlns:xlink="http://www.w3.org/1999/xlink" x="0px" y="0px"
	 viewBox="0 0 1000 1000" style="enable-background:new 0 0 1000 1000;" xml:space="preserve">
<style type="text/css">
	.st0{opacity:0.74;enable-background:new    ;}
	.st1{fill:#E1E1E4;}
	.st2{clip-path:url(#SVGID_00000140705140587220745570000012878278523939657863_);}
	.st3{fill:#297A32;}
	.st4{fill:#E4E4E4;}
	.st5{fill:#E25050;}
	.st6{fill:#A03333;}
	.st7{fill:#F26161;}
	.st8{fill:#368E42;}
	.st9{fill:#FFFFFF;}
</style>
<g id="Rectangle_72" class="st0">
	<path class="st1" d="M211.42,200.53h577.17c40.6,0,73.51,32.91,73.51,73.51v451.93c0,40.6-32.91,73.51-73.51,73.51H211.42
		c-40.6,0-73.51-32.91-73.51-73.51V274.03C137.91,233.44,170.82,200.53,211.42,200.53z"/>
</g>
<g>
	<defs>
		<rect id="SVGID_1_" x="225.03" y="235.92" width="549.94" height="528.75"/>
	</defs>
	<clipPath id="SVGID_00000070832815737788323120000005150594771961972136_">
		<use xlink:href="#SVGID_1_"  style="overflow:visible;"/>
	</clipPath>
	<g id="Path_2" style="clip-path:url(#SVGID_00000070832815737788323120000005150594771961972136_);">
		<path class="st3" d="M578.82,323.58c-0.82-2.06,1.72-3.78,4.03-4.75c13.36-5.6,29.12-6.84,44.5-7.4
			c14.83-0.54,30.82-0.29,43.53,6.43c-31.58,0.62-62.16,10.05-85.19,26.29"/>
		<path class="st4" d="M586.49,345.26l-1.57-2.23c21.96-15.48,50.2-24.73,80.07-26.32c-11.25-4.19-24.62-4.4-37.58-3.93
			c-17.51,0.63-31.69,2.12-44.03,7.29c-1.85,0.78-3.67,2.04-3.29,2.99l-2.53,1c-0.96-2.42,0.82-4.85,4.77-6.51
			c14.14-5.93,30.63-6.98,44.98-7.5c15.43-0.57,31.46-0.16,44.22,6.59l4.65,2.46l-5.26,0.1
			C639.42,319.84,609.44,329.09,586.49,345.26z"/>
	</g>
	<g id="Path_3" style="clip-path:url(#SVGID_00000070832815737788323120000005150594771961972136_);">
		<path class="st5" d="M735.47,569.97c1.33-9.63,1.99-19.35,1.99-29.07c0-123.58-106.32-223.77-237.47-223.77
			S262.53,417.32,262.53,540.9c0,8.72,0.54,17.43,1.61,26.08"/>
		<path class="st4" d="M736.82,570.16l-2.7-0.37c1.31-9.54,1.98-19.26,1.98-28.89c0-122.63-105.92-222.41-236.11-222.41
			c-130.19,0-236.1,99.77-236.1,222.41c0,8.63,0.54,17.35,1.6,25.92l-2.7,0.33c-1.07-8.67-1.62-17.51-1.62-26.25
			c0-60.15,24.85-116.69,69.98-159.22c45.11-42.5,105.07-65.91,168.85-65.91c63.78,0,123.74,23.41,168.85,65.91
			c45.13,42.52,69.98,99.07,69.98,159.22C738.83,550.65,738.15,560.49,736.82,570.16z"/>
	</g>
	<g id="Path_4" style="clip-path:url(#SVGID_00000070832815737788323120000005150594771961972136_);">
		<path class="st3" d="M528.8,332.83c-1.58,1.56-4.15-0.11-5.95-1.87c-10.36-10.12-17.63-24.16-24.14-38.11
			c-6.26-13.45-12.27-28.27-11.02-42.6c12.86,28.84,33.46,53.34,57.38,68.24"/>
		<path class="st4" d="M527.32,334.8c-1.59,0-3.48-0.98-5.41-2.87c-10.96-10.71-18.36-25.5-24.42-38.51
			c-6.08-13.06-12.45-28.26-11.15-43.29l0.46-5.24l2.14,4.81c12.83,28.77,33.02,52.79,56.86,67.63l-1.44,2.31
			c-22.81-14.2-42.33-36.62-55.43-63.52c0.52,12.52,5.88,25.11,11.02,36.16c5.97,12.8,13.22,27.32,23.86,37.72
			c1.44,1.4,3.31,2.59,4.04,1.87l1.91,1.94C529.08,334.47,528.25,334.8,527.32,334.8z"/>
	</g>
	<g id="Path_5" style="clip-path:url(#SVGID_00000070832815737788323120000005150594771961972136_);">
		<path class="st5" d="M735.48,567.25C720.35,677.1,620.69,761.94,500,761.94c-121.79,0-222.14-86.39-235.85-197.68"/>
		<path class="st4" d="M500,763.31c-121.26,0-223.23-85.5-237.2-198.88l2.7-0.33C279.3,676.11,380.12,760.58,500,760.58
			c118.28,0,218.93-83.19,234.12-193.52l2.7,0.37c-7.41,53.78-35.33,103.28-78.63,139.4C614.54,743.25,558.36,763.31,500,763.31z"/>
	</g>
	<g id="Path_6" style="clip-path:url(#SVGID_00000070832815737788323120000005150594771961972136_);">
		<path class="st6" d="M513.2,601.86c-21.91,0-43.99-0.68-66.2-2.03c-60.8-3.71-122.82-12.53-184.32-26.2l2.95-13.29
			c143.52,31.9,282.94,36.6,414.38,13.98c17.89-3.08,36.03-6.77,53.91-10.98l3.12,13.25c-18.15,4.27-36.56,8.02-54.72,11.14
			C627.71,597.14,571.05,601.86,513.2,601.86z"/>
	</g>
	<g id="Path_7" style="clip-path:url(#SVGID_00000070832815737788323120000005150594771961972136_);">
		<path class="st7" d="M349.5,407.75c30.04-17.34,64.52,1.3,81.43,20.57c11.1,12.82,17.8,28.86,19.11,45.76
			c0.64,8.6,2.28,30.8-8.86,39.48c-11.56,9.01-23.69-6.84-56.44-10.35c-32.89-3.54-45.91,9.75-58.41-1.58
			c-14.22-12.91-9.42-41.1-8.63-45.71C318.04,453.97,323.87,422.55,349.5,407.75"/>
	</g>
	<g id="Path_8" style="clip-path:url(#SVGID_00000070832815737788323120000005150594771961972136_);">
		<path class="st8" d="M622.34,235.96c-19.89-0.67-39.02,7.69-52.04,22.73c-12.1,14.38-17.25,33.64-29.47,47.92
			c-10.56,12.21-25.48,19.81-41.57,21.17l-5.36-1.85c31.14,19.43,71.24,13.1,107.21,20.46c7,1.43,15.31,5.09,15.57,12.23
			c0.97-9.25-2.1-18.47-8.4-25.31c-4.22-4.51-9.66-7.72-13.9-12.21c-8.53-9.17-10.91-22.48-6.09-34.03
			c5.26-11.41,17.14-18.26,29.65-17.09c9.99,1.44,18.42,8.15,22.07,17.56c0.32,0.07,0.64,0.12,0.95,0.18
			c0.84-15.58,16.94-29.85,32.69-26.66C660.74,245.96,642.17,236.88,622.34,235.96"/>
	</g>
	<g id="Path_9" style="clip-path:url(#SVGID_00000070832815737788323120000005150594771961972136_);">
		<path class="st8" d="M470.01,276.2c13.98,25.69,39.13,43.39,68.03,47.89c8.55,1.05,17.15,1.51,25.76,1.36l38.01,0.25
			c17.1,0.11,34.58,0.27,50.69,5.99c16.11,5.72,30.92,18.06,34.83,34.7c-15.93-10.39-34.07-16.9-52.97-19.02
			c-8.25-0.91-16.57-0.98-24.86-1.31c-37.74-1.5-75.02-8.48-112.14-15.44c-3.03-0.28-5.92-1.42-8.32-3.29
			c-1.63-1.82-2.81-3.99-3.47-6.34l-14.83-41.13"/>
	</g>
	<g id="Path_10" style="clip-path:url(#SVGID_00000070832815737788323120000005150594771961972136_);">
		<path class="st8" d="M504.96,324.25c-23.42,14.37-50.72,21.12-78.14,19.31c0.86,2.8,4.21,3.84,7.09,4.39
			c37.61,7.03,76.49,1.61,110.74-15.46c-14.83-1.13-29.5-3.74-43.81-7.79"/>
	</g>
	<g id="Path_11" style="clip-path:url(#SVGID_00000070832815737788323120000005150594771961972136_);">
		<path class="st8" d="M542.88,327.28c20.11,14.04,40.39,28.21,57.2,46.07c16.81,17.86,30.14,39.91,33.49,64.2
			c0.57-31.73-0.54-65.73-19-91.56c-3.74-5.91-9.48-10.26-16.18-12.25c-13.24-4.75-27.52-5.82-41.32-3.11"/>
	</g>
	<g id="Path_12" style="clip-path:url(#SVGID_00000070832815737788323120000005150594771961972136_);">
		<path class="st8" d="M485.31,320.4c1.87,5.5,4.36,10.77,7.42,15.71c1.27,2.06,3.08,4.29,5.49,4.16c2.67-0.55,4.39-3.15,3.84-5.82
			c-0.01-0.05-0.02-0.1-0.03-0.15c-0.74-2.58-2.19-4.91-4.19-6.71l-9.65-10.42c-1.09-1.18-2.61-2.48-4.12-1.92"/>
	</g>
	<g id="Path_13" style="clip-path:url(#SVGID_00000070832815737788323120000005150594771961972136_);">
		<path class="st9" d="M507.74,611l-16.54,28.31h32.51L507.74,611z"/>
		<path class="st4" d="M526.04,640.68h-37.21l18.93-32.41L526.04,640.68z M493.58,637.95h27.8l-13.66-24.22L493.58,637.95z"/>
	</g>
	<g id="Path_14" style="clip-path:url(#SVGID_00000070832815737788323120000005150594771961972136_);">
		<path class="st9" d="M507.74,611l-16.54,28.31h32.51L507.74,611z"/>
		<path class="st9" d="M523.71,642.04h-32.51c-0.98,0-1.88-0.52-2.36-1.37c-0.49-0.85-0.48-1.89,0.01-2.73l16.54-28.31
			c0.49-0.84,1.38-1.39,2.37-1.35c0.97,0.01,1.87,0.54,2.35,1.38l15.97,28.31c0.48,0.84,0.47,1.88-0.02,2.71
			S524.68,642.04,523.71,642.04z M495.95,636.59h23.1l-11.35-20.12L495.95,636.59z"/>
	</g>
	<g id="Path_15" style="clip-path:url(#SVGID_00000070832815737788323120000005150594771961972136_);">
		<path class="st9" d="M292.56,556.09c0,1.26-1.02,2.28-2.28,2.28s-2.28-1.02-2.28-2.28c0-1.26,1.02-2.28,2.28-2.28c0,0,0,0,0,0
			C291.54,553.81,292.56,554.83,292.56,556.09"/>
		<path class="st4" d="M290.28,559.74c-2.01,0-3.65-1.64-3.65-3.65s1.64-3.65,3.65-3.65c2.01,0,3.65,1.64,3.65,3.65
			C293.92,558.1,292.29,559.74,290.28,559.74z M290.28,555.17c-0.51,0-0.92,0.41-0.92,0.92s0.41,0.92,0.92,0.92s0.92-0.41,0.92-0.92
			S290.79,555.17,290.28,555.17z"/>
	</g>
	<g id="Path_16" style="clip-path:url(#SVGID_00000070832815737788323120000005150594771961972136_);">
		<path class="st4" d="M290.28,561.1c-2.76,0-5.01-2.25-5.01-5.01s2.25-5.01,5.01-5.01c2.76,0,5.01,2.25,5.01,5.01
			C295.28,558.85,293.04,561.1,290.28,561.1z M290.28,555.65c-0.24,0-0.44,0.2-0.44,0.44s0.2,0.44,0.44,0.44
			c0.24,0,0.44-0.2,0.44-0.44S290.52,555.65,290.28,555.65z"/>
	</g>
	<g id="Path_17" style="clip-path:url(#SVGID_00000070832815737788323120000005150594771961972136_);">
		<path class="st9" d="M339.12,563.23c0,1.26-1.02,2.28-2.28,2.28c-1.26,0-2.28-1.02-2.28-2.28c0-1.26,1.02-2.28,2.28-2.28
			c0,0,0,0,0,0C338.1,560.94,339.12,561.97,339.12,563.23"/>
		<path class="st4" d="M336.84,566.87c-2.01,0-3.65-1.64-3.65-3.65s1.64-3.65,3.65-3.65c2.01,0,3.65,1.64,3.65,3.65
			C340.48,565.24,338.85,566.87,336.84,566.87z M336.84,562.3c-0.51,0-0.92,0.41-0.92,0.92s0.41,0.92,0.92,0.92s0.92-0.41,0.92-0.92
			S337.35,562.3,336.84,562.3z"/>
	</g>
	<g id="Path_18" style="clip-path:url(#SVGID_00000070832815737788323120000005150594771961972136_);">
		<path class="st4" d="M336.84,568.23c-2.76,0-5.01-2.25-5.01-5.01s2.25-5.01,5.01-5.01c2.76,0,5.01,2.25,5.01,5.01
			C341.84,565.99,339.6,568.23,336.84,568.23z M336.84,562.79c-0.24,0-0.44,0.2-0.44,0.44s0.2,0.44,0.44,0.44
			c0.24,0,0.44-0.2,0.44-0.44S337.08,562.79,336.84,562.79z"/>
	</g>
	<g id="Path_19" style="clip-path:url(#SVGID_00000070832815737788323120000005150594771961972136_);">
		<path class="st9" d="M385.69,568.5c0,1.26-1.02,2.28-2.28,2.28s-2.28-1.02-2.28-2.28c0-1.26,1.02-2.28,2.28-2.28l0,0
			C384.66,566.22,385.69,567.24,385.69,568.5"/>
		<path class="st4" d="M383.4,572.15c-2.01,0-3.65-1.64-3.65-3.65s1.64-3.65,3.65-3.65s3.65,1.64,3.65,3.65
			S385.41,572.15,383.4,572.15z M383.4,567.58c-0.51,0-0.92,0.41-0.92,0.92s0.41,0.92,0.92,0.92s0.92-0.41,0.92-0.92
			S383.91,567.58,383.4,567.58z"/>
	</g>
	<g id="Path_20" style="clip-path:url(#SVGID_00000070832815737788323120000005150594771961972136_);">
		<path class="st4" d="M383.4,573.51c-2.76,0-5.01-2.25-5.01-5.01s2.25-5.01,5.01-5.01s5.01,2.25,5.01,5.01
			S386.16,573.51,383.4,573.51z M383.4,568.06c-0.24,0-0.44,0.2-0.44,0.44s0.2,0.44,0.44,0.44s0.44-0.2,0.44-0.44
			S383.64,568.06,383.4,568.06z"/>
	</g>
	<g id="Path_21" style="clip-path:url(#SVGID_00000070832815737788323120000005150594771961972136_);">
		<path class="st9" d="M432.25,573.07c0,1.26-1.02,2.29-2.28,2.29c-1.26,0-2.29-1.02-2.29-2.28c0-1.26,1.02-2.29,2.28-2.29
			c0,0,0,0,0,0C431.22,570.78,432.25,571.81,432.25,573.07"/>
		<path class="st4" d="M429.96,576.71c-0.97,0-1.88-0.38-2.57-1.06c-0.69-0.69-1.07-1.6-1.07-2.58c0-2.01,1.63-3.65,3.64-3.65
			c2.01,0,3.65,1.63,3.65,3.64c0,0.97-0.38,1.89-1.06,2.58S430.94,576.71,429.96,576.71C429.97,576.71,429.96,576.71,429.96,576.71z
			 M429.96,572.15c-0.51,0-0.92,0.42-0.92,0.92c0,0.25,0.1,0.48,0.27,0.65s0.41,0.27,0.65,0.27c0,0,0,0,0,0
			c0.25,0,0.48-0.1,0.65-0.27c0.17-0.17,0.27-0.41,0.27-0.65C430.89,572.56,430.47,572.15,429.96,572.15z"/>
	</g>
	<g id="Path_22" style="clip-path:url(#SVGID_00000070832815737788323120000005150594771961972136_);">
		<path class="st4" d="M429.96,578.08c-1.33,0-2.59-0.52-3.53-1.46c-0.95-0.94-1.47-2.2-1.47-3.54c0-2.76,2.24-5.01,5-5.01
			c2.76,0,5.01,2.24,5.01,5c0,1.34-0.52,2.59-1.46,3.54C432.56,577.55,431.31,578.07,429.96,578.08
			C429.97,578.08,429.96,578.08,429.96,578.08z M429.96,572.63C429.96,572.63,429.96,572.63,429.96,572.63
			c-0.11,0-0.23,0.05-0.31,0.13c-0.08,0.08-0.13,0.2-0.13,0.31c0,0.24,0.2,0.44,0.44,0.44c0.24,0,0.44-0.2,0.44-0.44
			c0-0.11-0.05-0.23-0.13-0.31C430.19,572.68,430.08,572.63,429.96,572.63z"/>
	</g>
	<g id="Path_23" style="clip-path:url(#SVGID_00000070832815737788323120000005150594771961972136_);">
		<path class="st9" d="M478.81,575.35c0,1.26-1.02,2.29-2.28,2.29c-1.26,0-2.29-1.02-2.29-2.28c0-1.26,1.02-2.29,2.28-2.29
			c0,0,0,0,0.01,0C477.79,573.07,478.81,574.09,478.81,575.35"/>
		<path class="st4" d="M476.52,579c-0.97,0-1.88-0.38-2.57-1.06c-0.69-0.69-1.07-1.6-1.07-2.58c0-2.01,1.63-3.65,3.64-3.65
			c2.01,0,3.65,1.64,3.65,3.64c0,0.97-0.38,1.89-1.06,2.58S477.5,579,476.52,579C476.53,579,476.53,579,476.52,579z M476.53,574.43
			c-0.51,0-0.92,0.42-0.92,0.92c0,0.25,0.1,0.48,0.27,0.65c0.17,0.17,0.41,0.27,0.65,0.27c0,0,0,0,0,0c0.25,0,0.48-0.1,0.65-0.27
			c0.17-0.17,0.27-0.41,0.27-0.65C477.45,574.84,477.04,574.43,476.53,574.43z"/>
	</g>
	<g id="Path_24" style="clip-path:url(#SVGID_00000070832815737788323120000005150594771961972136_);">
		<path class="st4" d="M476.52,580.36c-1.33,0-2.59-0.52-3.53-1.46c-0.95-0.94-1.47-2.2-1.47-3.54c0-2.76,2.24-5.01,5-5.01
			c2.77,0,5.01,2.25,5.01,5l0,0c0,1.34-0.52,2.59-1.46,3.54C479.13,579.84,477.87,580.36,476.52,580.36
			C476.53,580.36,476.53,580.36,476.52,580.36z M476.97,575.35l-0.88,0c0,0.24,0.2,0.44,0.44,0.44
			C476.77,575.79,476.97,575.59,476.97,575.35z M476.53,574.91C476.53,574.91,476.53,574.91,476.53,574.91
			c-0.11,0-0.23,0.05-0.31,0.13c-0.08,0.08-0.13,0.2-0.13,0.31l0.88,0l0,0c0-0.11-0.05-0.23-0.13-0.31
			C476.76,574.96,476.64,574.91,476.53,574.91z"/>
	</g>
	<g id="Path_25" style="clip-path:url(#SVGID_00000070832815737788323120000005150594771961972136_);">
		<path class="st9" d="M525.38,576.57c0,1.26-1.02,2.28-2.28,2.28c-1.26,0-2.28-1.02-2.28-2.28c0-1.26,1.02-2.28,2.28-2.28
			c0,0,0,0,0,0C524.36,574.28,525.38,575.31,525.38,576.57"/>
		<path class="st4" d="M523.1,580.21c-2.01,0-3.65-1.64-3.65-3.65s1.64-3.65,3.65-3.65c2.01,0,3.65,1.64,3.65,3.65
			C526.75,578.58,525.11,580.21,523.1,580.21z M523.1,575.64c-0.51,0-0.92,0.41-0.92,0.92s0.41,0.92,0.92,0.92s0.92-0.41,0.92-0.92
			S523.61,575.64,523.1,575.64z"/>
	</g>
	<g id="Path_26" style="clip-path:url(#SVGID_00000070832815737788323120000005150594771961972136_);">
		<path class="st4" d="M523.1,581.57c-2.76,0-5.01-2.25-5.01-5.01s2.25-5.01,5.01-5.01c2.76,0,5.01,2.25,5.01,5.01
			C528.11,579.33,525.86,581.57,523.1,581.57z M523.1,576.13c-0.24,0-0.44,0.2-0.44,0.44s0.2,0.44,0.44,0.44s0.44-0.2,0.44-0.44
			S523.34,576.13,523.1,576.13z"/>
	</g>
	<g id="Path_27" style="clip-path:url(#SVGID_00000070832815737788323120000005150594771961972136_);">
		<path class="st9" d="M571.94,575.35c0,1.26-1.02,2.29-2.28,2.29c-1.26,0-2.29-1.02-2.29-2.28c0-1.26,1.02-2.29,2.28-2.29
			c0,0,0,0,0.01,0C570.92,573.07,571.94,574.09,571.94,575.35"/>
		<path class="st4" d="M569.65,579c-0.97,0-1.88-0.38-2.57-1.06c-0.69-0.69-1.07-1.6-1.07-2.58c0-0.97,0.38-1.89,1.06-2.58
			s1.6-1.07,2.58-1.07c2.01,0,3.65,1.64,3.65,3.64v0c0,0.97-0.38,1.89-1.07,2.58C571.55,578.62,570.63,579,569.65,579
			C569.66,579,569.65,579,569.65,579z M569.66,574.43c-0.25,0-0.48,0.1-0.65,0.27c-0.17,0.17-0.27,0.41-0.27,0.65
			c0,0.25,0.1,0.48,0.27,0.65c0.17,0.17,0.4,0.29,0.65,0.27c0.25,0,0.48-0.1,0.65-0.27c0.17-0.17,0.27-0.41,0.27-0.65
			C570.58,574.84,570.16,574.43,569.66,574.43z"/>
	</g>
	<g id="Path_28" style="clip-path:url(#SVGID_00000070832815737788323120000005150594771961972136_);">
		<path class="st4" d="M569.65,580.36c-1.33,0-2.59-0.52-3.53-1.46c-0.95-0.95-1.47-2.2-1.47-3.54c0-1.34,0.52-2.59,1.46-3.54
			c0.94-0.95,2.2-1.47,3.54-1.47c2.77,0,5.01,2.25,5.01,5c0,0,0,0,0,0c0,1.34-0.52,2.59-1.46,3.54
			C572.25,579.84,571,580.36,569.65,580.36C569.66,580.36,569.65,580.36,569.65,580.36z M570.09,575.35l-0.88,0
			c0,0.36,0.5,0.55,0.75,0.31C570.04,575.58,570.09,575.47,570.09,575.35z M569.65,574.91L569.65,574.91
			c-0.11,0-0.23,0.05-0.31,0.13s-0.13,0.2-0.13,0.31l0.88,0l0,0c0-0.11-0.05-0.23-0.13-0.31
			C569.88,574.96,569.77,574.91,569.65,574.91z"/>
	</g>
	<g id="Path_29" style="clip-path:url(#SVGID_00000070832815737788323120000005150594771961972136_);">
		<path class="st9" d="M618.5,573.07c0,1.26-1.02,2.29-2.28,2.29c-1.26,0-2.29-1.02-2.29-2.28c0-1.26,1.02-2.29,2.28-2.29
			c0,0,0,0,0.01,0C617.48,570.79,618.5,571.81,618.5,573.07"/>
		<path class="st4" d="M616.22,576.71c-0.97,0-1.88-0.38-2.57-1.06c-0.69-0.69-1.07-1.6-1.07-2.58c0-0.97,0.38-1.89,1.06-2.58
			s1.6-1.07,2.58-1.07c2.01,0,3.65,1.64,3.65,3.64v0c0,0.97-0.38,1.89-1.07,2.58S617.2,576.71,616.22,576.71
			C616.22,576.71,616.22,576.71,616.22,576.71z M616.22,572.15c-0.25,0-0.48,0.1-0.65,0.27c-0.17,0.17-0.27,0.41-0.27,0.65
			c0,0.25,0.1,0.48,0.27,0.65c0.18,0.17,0.44,0.28,0.65,0.27c0.25,0,0.48-0.1,0.65-0.27c0.17-0.17,0.27-0.41,0.27-0.65
			C617.14,572.56,616.73,572.15,616.22,572.15z"/>
	</g>
	<g id="Path_30" style="clip-path:url(#SVGID_00000070832815737788323120000005150594771961972136_);">
		<path class="st4" d="M616.21,578.08c-1.33,0-2.59-0.52-3.53-1.46c-0.95-0.94-1.47-2.2-1.47-3.54c0-1.34,0.52-2.59,1.46-3.54
			c0.94-0.95,2.2-1.47,3.54-1.47c2.77,0,5.01,2.25,5.01,5c0,0,0,0,0,0c0,1.34-0.52,2.59-1.46,3.54
			C618.82,577.55,617.56,578.07,616.21,578.08C616.22,578.08,616.22,578.08,616.21,578.08z M616.66,573.07l-0.88,0
			c0,0.35,0.5,0.56,0.75,0.31C616.61,573.3,616.66,573.18,616.66,573.07z M616.22,572.63L616.22,572.63c-0.24,0-0.44,0.2-0.44,0.44
			l0.88,0l0,0c0-0.11-0.05-0.23-0.13-0.31C616.45,572.68,616.33,572.63,616.22,572.63z"/>
	</g>
	<g id="Path_31" style="clip-path:url(#SVGID_00000070832815737788323120000005150594771961972136_);">
		<path class="st9" d="M665.06,568.5c0,1.26-1.02,2.28-2.28,2.28s-2.28-1.02-2.28-2.28c0-1.26,1.02-2.28,2.28-2.28c0,0,0,0,0,0
			C664.04,566.22,665.06,567.24,665.06,568.5"/>
		<path class="st4" d="M662.78,572.15c-2.01,0-3.65-1.64-3.65-3.65s1.64-3.65,3.65-3.65c2.01,0,3.65,1.64,3.65,3.65
			C666.43,570.51,664.79,572.15,662.78,572.15z M662.78,567.58c-0.51,0-0.92,0.41-0.92,0.92s0.41,0.92,0.92,0.92
			s0.92-0.41,0.92-0.92S663.29,567.58,662.78,567.58z"/>
	</g>
	<g id="Path_32" style="clip-path:url(#SVGID_00000070832815737788323120000005150594771961972136_);">
		<path class="st4" d="M662.78,573.51c-2.76,0-5.01-2.25-5.01-5.01s2.25-5.01,5.01-5.01c2.76,0,5.01,2.25,5.01,5.01
			C667.79,571.26,665.54,573.51,662.78,573.51z M662.78,568.06c-0.24,0-0.44,0.2-0.44,0.44s0.2,0.44,0.44,0.44
			c0.24,0,0.44-0.2,0.44-0.44S663.02,568.06,662.78,568.06z"/>
	</g>
	<g id="Path_33" style="clip-path:url(#SVGID_00000070832815737788323120000005150594771961972136_);">
		<path class="st9" d="M711.63,561.1c0,1.26-1.02,2.29-2.28,2.29c-1.26,0-2.29-1.02-2.29-2.28c0-1.26,1.02-2.29,2.28-2.29
			c0,0,0,0,0.01,0C710.61,558.82,711.63,559.84,711.63,561.1"/>
		<path class="st4" d="M709.34,564.75c-2.01,0-3.64-1.63-3.65-3.64c0-2.01,1.63-3.65,3.64-3.65c2.01,0,3.65,1.63,3.65,3.64l0,0
			c0,0.97-0.38,1.89-1.06,2.58S710.32,564.75,709.34,564.75C709.35,564.75,709.35,564.75,709.34,564.75z M709.34,560.18
			c-0.51,0-0.92,0.42-0.92,0.92c0,0.51,0.42,0.92,0.92,0.92h0c0.25,0,0.48-0.1,0.65-0.27c0.17-0.17,0.27-0.41,0.27-0.65v0
			C710.27,560.59,709.85,560.18,709.34,560.18z"/>
	</g>
	<g id="Path_34" style="clip-path:url(#SVGID_00000070832815737788323120000005150594771961972136_);">
		<path class="st4" d="M709.35,566.11c-2.76,0-5-2.24-5.01-5c0-2.76,2.24-5.01,5-5.01c2.76,0,5.01,2.25,5.01,5l0,0
			c0,1.34-0.52,2.6-1.46,3.54C711.94,565.59,710.69,566.11,709.35,566.11C709.35,566.11,709.35,566.11,709.35,566.11z M708.9,561.1
			c0,0.24,0.2,0.44,0.44,0.44c0.24,0,0.44-0.2,0.44-0.44c0-0.24-0.2-0.44-0.44-0.44l0,0C709.1,560.67,708.91,560.86,708.9,561.1z"/>
	</g>
</g>
</svg>
